<svg height="512pt" viewBox="0 0 512 512.00061" width="512pt" xmlns="http://www.w3.org/2000/svg"><path d="m490.242188 22.871094-81.664063 80.640625c-4.789063 4.75-11.261719 7.417969-18.007813 7.421875h-15.101562v42.667968h17.066406c4.707032.011719 8.519532 3.824219 8.53125 8.53125v25.601563c-.011718 4.707031-3.824218 8.519531-8.53125 8.53125h-17.066406v42.667969h17.066406c4.707032.015625 8.519532 3.828125 8.53125 8.535156v25.597656c-.011718 4.707032-3.824218 8.519532-8.53125 8.535156h-68.269531v51.199219l-61.609375 82.089844c-1.59375 2.058594-4.050781 3.265625-6.65625 3.265625s-5.0625-1.207031-6.65625-3.265625l-7.339844-9.8125-54.269531-72.277344v-51.199219h-68.265625c-4.707031-.015624-8.523438-3.828124-8.535156-8.535156v-25.597656c.011718-4.707031 3.828125-8.519531 8.535156-8.535156h17.066406v-42.667969h-17.066406c-4.707031-.011719-8.523438-3.824219-8.535156-8.53125v-25.601563c.011718-4.707031 3.828125-8.519531 8.535156-8.53125h17.066406v-42.667968h-15.105468c-5.015626.019531-9.917969-1.46875-14.078126-4.265625-1.402343-.929688-2.71875-1.988281-3.925781-3.15625l-81.664062-80.640625c-2.304688-2.484375-2.921875-6.097656-1.570313-9.203125 1.347656-3.109375 4.410156-5.125 7.796875-5.132813h456.023438c3.386719.007813 6.449219 2.023438 7.796875 5.132813 1.351562 3.105469.734375 6.71875-1.566406 9.203125zm0 0" fill="#cad9fc"/><path d="m462.25 22.871094-81.664062 80.640625c-1.207032 1.167969-2.523438 2.226562-3.925782 3.15625-.878906.589843-1.789062 1.132812-2.730468 1.621093-3.53125 1.734376-7.414063 2.640626-11.347657 2.644532h-15.105469v42.667968h17.066407c4.707031.011719 8.519531 3.824219 8.535156 8.53125v25.601563c-.015625 4.707031-3.828125 8.519531-8.535156 8.53125h-17.066407v42.667969h17.066407c4.707031.015625 8.519531 3.828125 8.535156 8.535156v25.597656c-.015625 4.707032-3.828125 8.519532-8.535156 8.535156h-68.265625v51.199219l-54.273438 72.277344-54.269531-72.277344v-51.199219h-68.265625c-4.707031-.015624-8.523438-3.828124-8.535156-8.535156v-25.597656c.011718-4.707031 3.828125-8.519531 8.535156-8.535156h17.066406v-42.667969h-17.066406c-4.707031-.011719-8.523438-3.824219-8.535156-8.53125v-25.601563c.011718-4.707031 3.828125-8.519531 8.535156-8.53125h17.066406v-42.667968h-15.105468c-5.015626.019531-9.917969-1.46875-14.078126-4.265625-1.402343-.929688-2.71875-1.988281-3.925781-3.15625l-81.664062-80.640625c-2.304688-2.484375-2.921875-6.097656-1.570313-9.203125 1.347656-3.109375 4.410156-5.125 7.796875-5.132813h428.035157c3.386718.007813 6.445312 2.023438 7.796874 5.132813 1.351563 3.105469.734376 6.71875-1.570312 9.203125zm0 0" fill="#e8edfc"/><path d="m324.265625 332.800781-61.609375 82.089844c-1.59375 2.058594-4.050781 3.265625-6.65625 3.265625s-5.0625-1.207031-6.65625-3.265625l-6.144531-8.191406-55.464844-73.898438zm0 0" fill="#cad9fc"/><path d="m298.667969 332.800781-55.46875 73.898438-55.464844-73.898438zm0 0" fill="#e8edfc"/><path d="m187.734375 281.601562h136.53125v51.199219h-136.53125zm0 0" fill="#7facfa"/><path d="m187.734375 281.601562h110.933594v51.199219h-110.933594zm0 0" fill="#e8edfc"/><path d="m119.46875 238.933594h273.066406c4.710938 0 8.53125 3.820312 8.53125 8.535156v25.597656c0 4.714844-3.820312 8.535156-8.53125 8.535156h-273.066406c-4.714844 0-8.535156-3.820312-8.535156-8.535156v-25.597656c0-4.714844 3.820312-8.535156 8.535156-8.535156zm0 0" fill="#cad9fc"/><path d="m119.46875 238.933594h247.464844c4.710937 0 8.535156 3.820312 8.535156 8.535156v25.597656c0 4.714844-3.824219 8.535156-8.535156 8.535156h-247.464844c-4.714844 0-8.535156-3.820312-8.535156-8.535156v-25.597656c0-4.714844 3.820312-8.535156 8.535156-8.535156zm0 0" fill="#e8edfc"/><path d="m401.066406 162.132812v25.601563c-.011718 4.707031-3.824218 8.519531-8.53125 8.53125h-34.136718v-42.664063h34.136718c4.707032.011719 8.519532 3.824219 8.53125 8.53125zm0 0" fill="#cad9fc"/><path d="m153.601562 153.601562v42.664063h-34.132812c-4.707031-.011719-8.523438-3.824219-8.535156-8.53125v-25.601563c.011718-4.707031 3.828125-8.519531 8.535156-8.53125zm0 0" fill="#cad9fc"/><path d="m298.667969 153.601562h59.730469v42.664063h-59.730469zm0 0" fill="#e8edfc"/><path d="m153.601562 153.601562h59.730469v42.664063h-59.730469zm0 0" fill="#e8edfc"/><path d="m213.332031 153.601562h85.335938v42.664063h-85.335938zm0 0" fill="#e8edfc"/><path d="m136.535156 196.265625h238.933594v42.667969h-238.933594zm0 0" fill="#7facfa"/><path d="m136.535156 196.265625h213.332032v42.667969h-213.332032zm0 0" fill="#a4c2f7"/><path d="m136.535156 110.933594h238.933594v42.667968h-238.933594zm0 0" fill="#7facfa"/><path d="m136.535156 110.933594h213.332032v42.667968h-213.332032zm0 0" fill="#a4c2f7"/><g fill="#428dff"><path d="m409.601562 358.402344c0 4.710937-3.820312 8.53125-8.535156 8.53125-4.710937 0-8.53125-3.820313-8.53125-8.53125 0-4.714844 3.820313-8.535156 8.53125-8.535156 4.714844 0 8.535156 3.820312 8.535156 8.535156zm0 0"/><path d="m384 384c0 4.714844-3.820312 8.535156-8.53125 8.535156-4.714844 0-8.535156-3.820312-8.535156-8.535156 0-4.710938 3.820312-8.53125 8.535156-8.53125 4.710938 0 8.53125 3.820312 8.53125 8.53125zm0 0"/><path d="m358.398438 409.601562c0 4.710938-3.820313 8.53125-8.53125 8.53125-4.714844 0-8.535157-3.820312-8.535157-8.53125 0-4.714843 3.820313-8.535156 8.535157-8.535156 4.710937 0 8.53125 3.820313 8.53125 8.535156zm0 0"/><path d="m332.800781 435.199219c0 4.714843-3.820312 8.535156-8.535156 8.535156-4.710937 0-8.53125-3.820313-8.53125-8.535156 0-4.710938 3.820313-8.53125 8.53125-8.53125 4.714844 0 8.535156 3.820312 8.535156 8.53125zm0 0"/><path d="m443.734375 460.800781c0 4.710938-3.820313 8.53125-8.535156 8.53125-4.710938 0-8.53125-3.820312-8.53125-8.53125 0-4.714843 3.820312-8.535156 8.53125-8.535156 4.714843 0 8.535156 3.820313 8.535156 8.535156zm0 0"/><path d="m409.601562 460.800781c0 4.710938-3.820312 8.53125-8.535156 8.53125-4.710937 0-8.53125-3.820312-8.53125-8.53125 0-4.714843 3.820313-8.535156 8.53125-8.535156 4.714844 0 8.535156 3.820313 8.535156 8.535156zm0 0"/><path d="m375.46875 460.800781c0 4.710938-3.824219 8.53125-8.535156 8.53125-4.710938 0-8.535156-3.820312-8.535156-8.53125 0-4.714843 3.824218-8.535156 8.535156-8.535156 4.710937 0 8.535156 3.820313 8.535156 8.535156zm0 0"/><path d="m341.332031 460.800781c0 4.710938-3.820312 8.53125-8.53125 8.53125-4.714843 0-8.535156-3.820312-8.535156-8.53125 0-4.714843 3.820313-8.535156 8.535156-8.535156 4.710938 0 8.53125 3.820313 8.53125 8.535156zm0 0"/><path d="m307.199219 460.800781c0 4.710938-3.820313 8.53125-8.53125 8.53125-4.714844 0-8.535157-3.820312-8.535157-8.53125 0-4.714843 3.820313-8.535156 8.535157-8.535156 4.710937 0 8.53125 3.820313 8.53125 8.535156zm0 0"/><path d="m119.46875 358.402344c0 4.710937-3.824219 8.53125-8.535156 8.53125-4.710938 0-8.535156-3.820313-8.535156-8.53125 0-4.714844 3.824218-8.535156 8.535156-8.535156 4.710937 0 8.535156 3.820312 8.535156 8.535156zm0 0"/><path d="m145.066406 384c0 4.714844-3.820312 8.535156-8.53125 8.535156-4.714844 0-8.535156-3.820312-8.535156-8.535156 0-4.710938 3.820312-8.53125 8.535156-8.53125 4.710938 0 8.53125 3.820312 8.53125 8.53125zm0 0"/><path d="m170.667969 409.601562c0 4.710938-3.820313 8.53125-8.535157 8.53125-4.710937 0-8.53125-3.820312-8.53125-8.53125 0-4.714843 3.820313-8.535156 8.53125-8.535156 4.714844 0 8.535157 3.820313 8.535157 8.535156zm0 0"/><path d="m196.265625 435.199219c0 4.714843-3.820313 8.535156-8.53125 8.535156-4.714844 0-8.535156-3.820313-8.535156-8.535156 0-4.710938 3.820312-8.53125 8.535156-8.53125 4.710937 0 8.53125 3.820312 8.53125 8.53125zm0 0"/><path d="m85.332031 460.800781c0 4.710938-3.820312 8.53125-8.53125 8.53125-4.714843 0-8.535156-3.820312-8.535156-8.53125 0-4.714843 3.820313-8.535156 8.535156-8.535156 4.710938 0 8.53125 3.820313 8.53125 8.535156zm0 0"/><path d="m119.46875 460.800781c0 4.710938-3.824219 8.53125-8.535156 8.53125-4.710938 0-8.535156-3.820312-8.535156-8.53125 0-4.714843 3.824218-8.535156 8.535156-8.535156 4.710937 0 8.535156 3.820313 8.535156 8.535156zm0 0"/><path d="m153.601562 460.800781c0 4.710938-3.820312 8.53125-8.535156 8.53125-4.710937 0-8.53125-3.820312-8.53125-8.53125 0-4.714843 3.820313-8.535156 8.53125-8.535156 4.714844 0 8.535156 3.820313 8.535156 8.535156zm0 0"/><path d="m187.734375 460.800781c0 4.710938-3.820313 8.53125-8.535156 8.53125-4.710938 0-8.53125-3.820312-8.53125-8.53125 0-4.714843 3.820312-8.535156 8.53125-8.535156 4.714843 0 8.535156 3.820313 8.535156 8.535156zm0 0"/><path d="m221.867188 460.800781c0 4.710938-3.820313 8.53125-8.535157 8.53125-4.710937 0-8.53125-3.820312-8.53125-8.53125 0-4.714843 3.820313-8.535156 8.53125-8.535156 4.714844 0 8.535157 3.820313 8.535157 8.535156zm0 0"/></g><path d="m243.199219 406.699219 6.144531 8.191406c1.59375 2.058594 4.050781 3.265625 6.65625 3.265625s5.0625-1.207031 6.65625-3.265625l6.144531-8.191406-55.46875-73.898438v-51.199219h-25.597656v51.199219zm0 0" fill="#fff"/><path d="m53.589844 8.535156h-25.601563c-3.386719.007813-6.449219 2.023438-7.796875 5.132813-1.351562 3.105469-.734375 6.71875 1.570313 9.203125l81.664062 80.640625c1.207031 1.167969 2.523438 2.226562 3.925781 3.15625 4.160157 2.796875 9.0625 4.285156 14.078126 4.265625h15.105468v42.667968h-17.066406c-4.707031.011719-8.523438 3.824219-8.535156 8.53125v25.601563c.011718 4.707031 3.828125 8.519531 8.535156 8.53125h17.066406v42.667969h-17.066406c-4.707031.015625-8.523438 3.828125-8.535156 8.535156v25.597656c.011718 4.707032 3.828125 8.519532 8.535156 8.535156h25.597656c-4.707031-.015624-8.519531-3.828124-8.53125-8.535156v-25.597656c.011719-4.707031 3.824219-8.519531 8.53125-8.535156h17.066406v-42.667969h-17.066406c-4.707031-.011719-8.519531-3.824219-8.53125-8.53125v-25.601563c.011719-4.707031 3.824219-8.519531 8.53125-8.53125h17.066406v-42.667968h-15.101562c-5.015625.019531-9.921875-1.46875-14.082031-4.265625-1.402344-.929688-2.714844-1.988281-3.925781-3.15625l-81.664063-80.640625c-2.304687-2.484375-2.917969-6.097656-1.570313-9.203125 1.351563-3.109375 4.414063-5.125 7.800782-5.132813zm0 0" fill="#fff"/><path d="m128 93.867188c-2.261719.003906-4.433594-.898438-6.03125-2.5l-51.203125-51.199219c-3.230469-3.347657-3.1875-8.671875.105469-11.964844 3.292968-3.289063 8.613281-3.335937 11.960937-.101563l51.203125 51.199219c2.4375 2.441407 3.167969 6.109375 1.847656 9.296875-1.320312 3.191406-4.433593 5.269532-7.882812 5.269532zm0 0" fill="#428dff"/><path d="m503.46875 512h-494.933594c-4.714844 0-8.535156-3.820312-8.535156-8.53125 0-4.714844 3.820312-8.535156 8.535156-8.535156h494.933594c4.710938 0 8.53125 3.820312 8.53125 8.535156 0 4.710938-3.820312 8.53125-8.53125 8.53125zm0 0" fill="#428dff"/><path d="m256 512c-4.710938 0-8.53125-3.820312-8.53125-8.53125v-85.335938c0-4.710937 3.820312-8.53125 8.53125-8.53125 4.714844 0 8.535156 3.820313 8.535156 8.53125v85.335938c0 4.710938-3.820312 8.53125-8.535156 8.53125zm0 0" fill="#428dff"/><path d="m256 426.667969c-5.191406.011719-10.101562-2.347657-13.332031-6.410157l-61.761719-82.335937c-2.828125-3.773437-2.0625-9.121094 1.707031-11.949219s9.121094-2.0625 11.945313 1.707032l61.601562 82.128906 61.28125-82.128906c1.828125-2.4375 4.820313-3.714844 7.847656-3.351563 3.027344.363281 5.628907 2.316406 6.824219 5.121094 1.199219 2.804687.808594 6.03125-1.019531 8.472656l-61.601562 82.128906c-3.234376 4.167969-8.214844 6.609375-13.492188 6.617188zm0 0" fill="#428dff"/><path d="m324.265625 341.332031c-4.710937 0-8.53125-3.820312-8.53125-8.53125v-42.667969h-119.46875v34.132813h85.335937c4.710938 0 8.53125 3.820313 8.53125 8.535156 0 4.710938-3.820312 8.53125-8.53125 8.53125h-93.867187c-4.714844 0-8.535156-3.820312-8.535156-8.53125v-51.199219c0-4.714843 3.820312-8.535156 8.535156-8.535156h136.53125c4.714844 0 8.535156 3.820313 8.535156 8.535156v51.199219c0 4.710938-3.820312 8.53125-8.535156 8.53125zm0 0" fill="#428dff"/><path d="m392.535156 290.132812h-273.066406c-9.421875-.007812-17.058594-7.644531-17.070312-17.066406v-25.597656c.011718-9.421875 7.648437-17.058594 17.070312-17.066406h273.066406c9.417969.007812 17.054688 7.644531 17.066406 17.066406v25.597656c-.011718 9.421875-7.648437 17.058594-17.066406 17.066406zm-273.066406-42.664062v25.597656h273.074219l-.007813-25.597656zm0 0" fill="#428dff"/><path d="m392.535156 204.800781h-273.066406c-9.421875-.011719-17.058594-7.644531-17.070312-17.066406v-25.601563c.011718-9.421874 7.648437-17.054687 17.070312-17.066406h273.066406c9.417969.011719 17.054688 7.644532 17.066406 17.066406v25.601563c-.011718 9.421875-7.648437 17.054687-17.066406 17.066406zm-273.066406-42.667969v25.601563h273.074219l-.007813-25.601563zm0 0" fill="#428dff"/><path d="m358.398438 204.800781h-204.796876c-4.714843 0-8.535156-3.820312-8.535156-8.535156v-42.664063c0-4.714843 3.820313-8.535156 8.535156-8.535156h204.796876c4.714843 0 8.535156 3.820313 8.535156 8.535156v42.664063c0 4.714844-3.820313 8.535156-8.535156 8.535156zm-196.265626-17.066406h187.734376v-25.601563h-187.734376zm0 0" fill="#428dff"/><path d="m298.667969 204.800781h-85.335938c-4.710937 0-8.53125-3.820312-8.53125-8.535156v-42.664063c0-4.714843 3.820313-8.535156 8.53125-8.535156h85.335938c4.710937 0 8.53125 3.820313 8.53125 8.535156v42.664063c0 4.714844-3.820313 8.535156-8.53125 8.535156zm-76.800781-17.066406h68.265624v-25.601563h-68.265624zm0 0" fill="#428dff"/><path d="m375.46875 247.46875h-238.933594c-4.714844 0-8.535156-3.820312-8.535156-8.535156v-42.667969c0-4.710937 3.820312-8.53125 8.535156-8.53125h238.933594c4.710938 0 8.53125 3.820313 8.53125 8.53125v42.667969c0 4.714844-3.820312 8.535156-8.53125 8.535156zm-230.402344-17.066406h221.867188v-25.601563h-221.867188zm0 0" fill="#428dff"/><path d="m375.46875 162.132812h-238.933594c-4.714844 0-8.535156-3.820312-8.535156-8.53125v-42.667968c0-4.710938 3.820312-8.53125 8.535156-8.53125h238.933594c4.710938 0 8.53125 3.820312 8.53125 8.53125v42.667968c0 4.710938-3.820312 8.53125-8.53125 8.53125zm-230.402344-17.066406h221.867188v-25.597656h-221.867188zm0 0" fill="#428dff"/><path d="m28.023438 0h455.953124v17.066406h-455.953124zm0 0" fill="#fff"/><path d="m70.691406 8.535156c-.015625-4.707031-3.828125-8.519531-8.535156-8.535156h-34.132812v17.066406h34.132812c4.707031-.011718 8.519531-3.824218 8.535156-8.53125zm0 0" fill="#428dff"/><path d="m483.976562 17.066406v-17.066406h-353.554687c-4.710937 0-8.53125 3.820312-8.53125 8.535156 0 4.710938 3.820313 8.53125 8.53125 8.53125zm0 0" fill="#428dff"/><path d="m96.289062 0c-2.257812.0351562-4.421874.917969-6.058593 2.476562l-1.023438 1.277344c-.320312.476563-.582031.992188-.765625 1.539063-.25.480469-.421875 1-.511718 1.535156-.097657.5625-.15625 1.132813-.171876 1.707031.03125 2.257813.914063 4.421875 2.472657 6.058594 3.398437 3.21875 8.722656 3.21875 12.117187 0 .773438-.816406 1.378906-1.773438 1.792969-2.816406.4375-1.027344.667969-2.128906.683594-3.242188-.035157-2.261718-.917969-4.421875-2.476563-6.058594-1.636718-1.558593-3.796875-2.4414058-6.058594-2.476562zm0 0" fill="#428dff"/><path d="m390.558594 119.46875h-269.117188c-8.984375.019531-17.605468-3.523438-23.984375-9.851562l-81.707031-80.6875c-4.832031-4.96875-6.160156-12.371094-3.359375-18.707032 2.675781-6.25 8.839844-10.2773435 15.636719-10.222656 3.046875 0 5.863281 1.628906 7.386718 4.265625 1.527344 2.640625 1.527344 5.894531 0 8.535156-1.523437 2.640625-4.339843 4.265625-7.386718 4.265625l81.429687 80.410156c3.183594 3.164063 7.496094 4.933594 11.984375 4.925782h269.117188c4.488281.007812 8.800781-1.761719 11.984375-4.925782l81.707031-80.691406c-4.710938.074219-8.589844-3.683594-8.667969-8.394531-.027343-2.230469.851563-4.382813 2.429688-5.960937 1.578125-1.582032 3.730469-2.4570318 5.964843-2.429688 6.792969-.0585938 12.957032 3.972656 15.632813 10.21875 2.78125 6.199219 1.566406 13.464844-3.085937 18.417969l-81.980469 80.984375c-6.378907 6.324218-15 9.867187-23.984375 9.847656zm0 0" fill="#428dff"/></svg>